<svg xmlns="http://www.w3.org/2000/svg" viewBox="0 0 512 512">
  <rect width="512" height="512" fill="#15325C"/>
  <g stroke="#2A4B7A" stroke-width="4">
    <path d="M64 0v512M128 0v512M192 0v512M256 0v512M320 0v512M384 0v512M448 0v512"/>
    <path d="M0 64h512M0 128h512M0 192h512M0 256h512M0 320h512M0 384h512M0 448h512"/>
  </g>
  <g fill="none" stroke="#EAF0F7" stroke-width="22" stroke-linecap="square">
    <path d="M128 136h96M176 88v96"/>
    <path d="M300 136h96"/>
    <path d="M136 312l80 80M216 312l-80 80"/>
  </g>
  <rect x="288" y="300" width="128" height="104" fill="#F2BE22"/>
  <path d="M312 336h80M312 368h80" stroke="#1B2B48" stroke-width="18"/>
</svg>
